<svg width="1600" height="500" viewBox="0 0 1600 500" xmlns="http://www.w3.org/2000/svg">

  <defs>
    <linearGradient id="bg" x1="0" y1="0" x2="1600" y2="500">
      <stop offset="0%" stop-color="#FFFFFF"></stop>
      <stop offset="100%" stop-color="#F8FAFC"></stop>
    </linearGradient>

    <linearGradient id="accent" x1="0" y1="0" x2="1" y2="0">
      <stop offset="0%" stop-color="#2563EB"></stop>
      <stop offset="100%" stop-color="#3B82F6"></stop>
    </linearGradient>
  </defs>

  <!-- Background -->
  <rect width="1600" height="500" fill="url(#bg)"></rect>

  <!-- Left Neural Network -->
  <g stroke="#CBD5E1" stroke-width="2">

    <circle cx="130" cy="100" r="8" fill="#2563EB"></circle>
    <circle cx="220" cy="70" r="8" fill="#2563EB"></circle>
    <circle cx="220" cy="130" r="8" fill="#2563EB"></circle>
    <circle cx="310" cy="100" r="8" fill="#2563EB"></circle>

    <circle cx="180" cy="210" r="8" fill="#3B82F6"></circle>
    <circle cx="270" cy="210" r="8" fill="#3B82F6"></circle>

    <line x1="130" y1="100" x2="220" y2="70"></line>
    <line x1="130" y1="100" x2="220" y2="130"></line>
    <line x1="220" y1="70" x2="310" y2="100"></line>
    <line x1="220" y1="130" x2="310" y2="100"></line>

    <line x1="220" y1="130" x2="180" y2="210"></line>
    <line x1="220" y1="130" x2="270" y2="210"></line>

  </g>

  <!-- Title -->

  <text x="870" y="145" text-anchor="middle" font-family="Inter,Segoe UI,Arial,sans-serif" font-size="46" font-weight="700" fill="#0F172A">

      Fundamentals of Generative AI

  </text>

  <text x="870" y="205" text-anchor="middle" font-family="Inter,Segoe UI,Arial,sans-serif" font-size="46" font-weight="700" fill="#0F172A">

      and Large Language Models

  </text>

  <!-- Accent -->

  <rect x="470" y="245" width="800" height="4" rx="2" fill="url(#accent)"></rect>

  <!-- Subtitle -->

  <text x="870" y="315" text-anchor="middle" font-family="Inter,Segoe UI,Arial,sans-serif" font-size="44" font-weight="700" fill="#2563EB">

      Theory and Practice

  </text>

  <!-- Topics -->

  <text x="870" y="375" text-anchor="middle" font-family="Inter,Segoe UI,Arial,sans-serif" font-size="22" fill="#475569">

      Transformers • Prompt Engineering • Fine-tuning • RAG • Agents

  </text>

  <!-- Bottom -->

  <text x="870" y="435" text-anchor="middle" font-family="Inter,Segoe UI,Arial,sans-serif" font-size="22" fill="#64748B">

      Notes • Assignments • Revision • Practice Questions • Resources

  </text>

  <!-- Right Token Blocks -->

  <g transform="translate(1360 110)">

    <rect x="0" y="0" width="52" height="36" rx="8" fill="#EFF6FF" stroke="#2563EB"></rect>

    <rect x="68" y="0" width="52" height="36" rx="8" fill="#EFF6FF" stroke="#2563EB"></rect>

    <rect x="136" y="0" width="52" height="36" rx="8" fill="#EFF6FF" stroke="#2563EB"></rect>

    <rect x="34" y="70" width="52" height="36" rx="8" fill="#EFF6FF" stroke="#2563EB"></rect>

    <rect x="102" y="70" width="52" height="36" rx="8" fill="#EFF6FF" stroke="#2563EB"></rect>

    <line x1="52" y1="36" x2="60" y2="70" stroke="#94A3B8"></line>

    <line x1="120" y1="36" x2="128" y2="70" stroke="#94A3B8"></line>

  </g>

</svg>